<?xml version="1.0" encoding="UTF-8" standalone="no"?>
<!-- Created with Inkscape (http://www.inkscape.org/) -->

<svg
   xmlns:dc="http://purl.org/dc/elements/1.1/"
   xmlns:cc="http://creativecommons.org/ns#"
   xmlns:rdf="http://www.w3.org/1999/02/22-rdf-syntax-ns#"
   xmlns:svg="http://www.w3.org/2000/svg"
   xmlns="http://www.w3.org/2000/svg"
   xmlns:sodipodi="http://sodipodi.sourceforge.net/DTD/sodipodi-0.dtd"
   xmlns:inkscape="http://www.inkscape.org/namespaces/inkscape"
   width="900mm"
   height="600mm"
   viewBox="0 0 900 600"
   version="1.1"
   id="svg8"
   inkscape:version="0.92.4 (5da689c313, 2019-01-14)"
   sodipodi:docname="Flag_Van_Hunks.svg"
   inkscape:export-filename="/home/courtney/CLionProjects/super-missile-command/assets/Flag_Van_Hunks.png"
   inkscape:export-xdpi="8.4666672"
   inkscape:export-ydpi="8.4666672">
  <defs
     id="defs2" />
  <sodipodi:namedview
     id="base"
     pagecolor="#ffffff"
     bordercolor="#666666"
     borderopacity="1.0"
     inkscape:pageopacity="0.0"
     inkscape:pageshadow="2"
     inkscape:zoom="0.175"
     inkscape:cx="1760.7163"
     inkscape:cy="1086.7552"
     inkscape:document-units="mm"
     inkscape:current-layer="layer1"
     showgrid="false"
     fit-margin-top="0"
     fit-margin-left="0"
     fit-margin-right="0"
     fit-margin-bottom="0"
     inkscape:window-width="1366"
     inkscape:window-height="708"
     inkscape:window-x="0"
     inkscape:window-y="0"
     inkscape:window-maximized="1" />
  <metadata
     id="metadata5">
    <rdf:RDF>
      <cc:Work
         rdf:about="">
        <dc:format>image/svg+xml</dc:format>
        <dc:type
           rdf:resource="http://purl.org/dc/dcmitype/StillImage" />
        <dc:title />
      </cc:Work>
    </rdf:RDF>
  </metadata>
  <g
     inkscape:label="Layer 1"
     inkscape:groupmode="layer"
     id="layer1"
     transform="translate(600.01355,566.23785)">
    <rect
       style="fill:#060606;fill-opacity:1;fill-rule:nonzero;stroke:none;stroke-width:1.29999995;stroke-linecap:round;stroke-miterlimit:4;stroke-dasharray:none;stroke-opacity:1"
       id="rect1524"
       width="900"
       height="600"
       x="-600.01355"
       y="-566.23785" />
    <path
       style="fill:#ffffff;fill-opacity:1;stroke-width:1.28478694"
       d="m 169.32609,-20.698126 c 15.95221,-3.97515 24.62531,-10.52367 28.83318,-21.77029 1.49467,-3.99481 3.18126,-13.31682 3.9881,-22.04271 0.76864,-8.31623 2.22661,-18.10015 3.2391,-21.74212 1.01242,-3.64188 1.84088,-8.97652 1.84088,-11.85466 0,-8.652664 -2.7548,-9.642114 -28.48927,-10.232174 -18.84797,-0.43245 -22.04934,-0.21149 -25.00001,1.72164 -3.33112,2.18265 -3.36655,2.36053 -2.26599,11.390164 2.7716,22.74041 0.20755,37.13988 -6.93229,38.9319 -7.01997,1.76197 -12.84049,-10.80073 -25.28039,-54.563014 -10.28069,-36.16667 -15.31915,-49.48973 -20.781158,-54.95174 -4.80574,-4.80574 -13.5119,-8.07507 -24.2585,-9.10949 -8.84924,-0.85183 -11.77631,0.99978 -10.37926,6.56579 0.61791,2.46329 1.87077,3.34021 5.60382,3.92316 21.92615,3.42367 25.43056,9.37497 34.425708,58.462 2.52507,13.779344 5.75076,29.678524 7.16817,35.331674 5.70602,22.75729 16.79637,38.44222 32.23848,45.59428 7.86437,3.64237 20.44766,5.74154 26.04943,4.34559 z m 0.27068,-94.944664 c -6.49888,-3.45928 -10.1137,-8.62085 -7.71632,-11.01825 2.61772,-2.61771 11.43539,-3.73153 23.50534,-2.9692 13.72134,0.86657 18.54855,-0.32671 20.73547,-5.12662 3.68648,-8.09093 -1.82154,-12.25839 -23.04731,-17.43812 -15.41133,-3.76074 -15.45947,-5.69236 -0.26595,-10.66446 12.90386,-4.22271 15.3025,-6.00415 12.22636,-9.08021 -2.30261,-2.30261 -15.23574,-6.47126 -17.61568,-5.67793 -0.82057,0.27305 2.08164,1.83377 6.4494,3.46725 4.36775,1.6334 7.94138,3.42985 7.94138,3.99197 0,0.56267 -5.49325,2.85232 -12.20726,5.08911 -11.99703,3.99679 -16.617,7.32608 -15.21956,10.96775 0.81015,2.11139 7.48698,4.74907 19.11012,7.54941 17.57472,4.23423 16.48813,5.87079 -4.81546,7.25244 -17.98145,1.16623 -26.9815,3.8631 -31.0328,9.29914 -2.45602,3.29545 -2.51979,3.87879 -0.7718,7.06629 2.53462,4.62281 11.67766,8.85554 21.16848,9.79977 l 7.70874,0.76707 z m 11.93469,-2.65631 c -8.34496,-2.3427 -10.42218,-3.91383 -7.69801,-5.82258 1.47936,-1.03648 1.18389,-1.17474 -1.29548,-0.60608 -1.76662,0.40484 -3.93467,0.74418 -4.81798,0.75366 -0.88331,0.008 -1.60601,0.62501 -1.60601,1.36792 0,2.01979 7.43442,4.691 15.41748,5.53966 l 7.06629,0.75128 z"
       id="path837"
       inkscape:connector-curvature="0"
       sodipodi:nodetypes="ccscsscscsscccsccccsscccsccscccccccccscccsccs" />
    <path
       style="fill:#ffffff;fill-opacity:1;stroke-width:2.08798289"
       d="m -25.923518,-117.22355 c -10.87082,-7.44763 -13.97182,-17.51208 -10.60883,-34.4314 1.59357,-8.01724 2.14093,-18.39941 1.34213,-25.45929 -1.58234,-13.98627 -0.0474,-16.63334 12.91578,-22.22454 6.33126,-2.73143 9.59325,-3.20816 11.16896,-1.63246 1.2242297,1.22422 2.9608497,11.48156 3.8592297,22.79415 1.80961,22.78767 8.32759,40.40422 14.94918,40.40422 5.1530603,0 7.2094603,-4.36096 3.1322703,-6.64265 -9.4295903,-5.27703 0.84108,-20.0422 11.99418,-17.24297 3.93435,0.98747 5.7746,0.44114 6.70848,-1.99271 0.70788,-1.84442 3.53527,-3.35345 6.28337,-3.35345 3.77588,0 5.00793,1.14775 5.04305,4.69795 l 0.0474,4.69801 4.12952,-5.21998 4.12959,-5.21996 3.6688,4.70576 c 3.63495,4.66227 3.69303,4.66708 6.28163,0.52163 1.45047,-2.32258 4.871,-4.18381 7.68878,-4.18381 4.97327,0 5.06789,0.32751 4.68026,16.18187 -0.21781,8.90004 0.30698,19.00065 1.16661,22.44581 2.82085,11.3103 0.22491,12.51938 -27.06429,12.60649 -13.53525,0.0396 -33.5357,0.84907 -44.4454403,1.79068 -18.8860597,1.63009 -20.1821797,1.47478 -27.0696397,-3.24376 z m -72.28664,-12.94632 c -8.412822,-3.83397 -14.321572,-11.56528 -19.579732,-25.61902 -3.70953,-9.91443 -3.95369,-12.68952 -1.86827,-21.22853 2.9723,-12.1697 5.88705,-18.05484 13.96031,-28.18687 3.51498,-4.41131 9.544952,-17.36938 13.602882,-29.2317 10.44791,-30.54195 31.57071,-87.13609 35.66723,-95.56305 2.62009,-5.38988 2.71407,-6.20887 0.37721,-3.29016 -3.87895,4.84544 -28.90886,66.91491 -37.145,92.11254 -10.469622,32.031 -18.976512,40.47595 -30.278362,30.05771 -7.52448,-6.93615 -10.34919,-14.64348 -15.1614,-41.36795 -5.25683,-29.19399 -9.26694,-37.18674 -7.39577,-14.74093 2.46131,29.52449 8.84174,49.2664 20.09941,62.19013 7.26611,8.34142 7.31866,9.81864 0.86941,24.40166 -4.12934,9.33718 -6.05512,11.54344 -10.07598,11.54344 -7.07047,0 -11.87012,-6.17597 -25.79618,-33.19353 l -12.26637,-23.79756 v -30.52561 c 0,-30.34316 0.0395,-30.60982 6.92431,-44.59925 5.39715,-10.96946 10.1426,-16.78248 21.51587,-26.35601 29.34417,-24.70043 48.346802,-31.64006 88.160012,-32.19532 27.10809,-0.37801 27.66279,-0.29198 42.03306,6.5123 19.2922497,9.13515 25.53284,14.1501 40.34868,32.42417 16.37709,20.19979 17.12435,21.82759 17.12435,37.30758 0,10.56375 1.31237,15.90833 6.53542,26.61421 6.14479,12.59507 6.39448,14.00719 4.176,23.61804 -3.71047,16.07445 -3.26578,18.93547 2.70997,17.43567 4.8119,-1.20765 5.14523,-0.66526 6.56169,10.67125 0.82073,6.56896 2.82606,15.13592 4.4563,19.0376 4.0087,9.59411 2.19513,13.70823 -5.37527,12.19416 -3.25994,-0.65185 -6.89433,-0.21861 -8.07625,0.96347 -1.47328,1.47337 -3.56787,0.62581 -6.66185,-2.69505 -4.58438,-4.9208 -5.7712,-4.48432 -9.38491,3.45186 -0.52321,1.14839 -3.18836,-0.53504 -5.92327,-3.74045 l -4.97257,-5.8285 -2.41783,5.30647 c -4.55795,10.00361 -10.84059,5.98371 -25.03529029,-16.01859 -9.03318001,-14.00173 -13.77475971,-16.25857 -34.15912971,-16.25857 -17.76981,0 -19.23188,-3.93285 -3.34241,-8.9908 19.76551,-6.29181 28.5671597,-13.81179 31.6331397,-27.02697 1.90668,-8.2183 -1.59332,-7.10021 -4.7041797,1.50279 -3.42084,9.4603 -10.0651,14.46087 -26.46595,19.9187 -14.86571,4.947 -22.53482,4.85214 -23.51426,-0.29119 -0.35669,-1.87182 12.16986,-22.54281 27.83624,-45.93561 33.94156971,-50.68089 32.48911971,-48.2405 24.0701397,-40.44447 -7.6119997,7.04876 -29.3771497,35.24494 -29.3771497,38.05727 0,1.00586 -5.25895,10.70675 -11.68658,21.55753 -16.54598,27.93196 -21.72112,38.62641 -21.72112,44.88696 0,3.00378 2.8188,11.88379 6.26394,19.73324 7.41921,16.90402 7.48029,17.57551 2.08796,22.96784 -10.15907,10.15909 -31.31974,1.84221 -31.31974,-12.30978 0,-3.42961 -0.93956,-6.81636 -2.08795,-7.52606 -1.30402,-0.80596 -2.08796,3.44729 -2.08796,11.32776 0,10.97861 0.78837,13.50021 6.0657,19.40692 4.9994,5.59529 7.50744,6.75086 14.26689,6.57362 9.74589,-0.25569 18.40539,-5.43448 22.57776,-13.50292 4.42048,-8.54824 3.82063,-12.63554 -4.16817,-28.40119 -10.69635,-21.10882 -11.09401,-23.59198 -3.77787,-23.59198 6.71946,0 14.39505,6.99872 20.60944,18.79184 2.73484,5.19013 3.86286,11.84622 3.89229,22.96783 0.0474,18.23533 -4.61958,28.05279 -16.96621,35.68348 -9.37339,5.79307 -32.14189,7.56456 -41.63294,3.23926 z m 121.1617,-104.11484 c 9.09262,-12.9815 -2.04898,-47.30085 -11.61428,-35.77526 -4.3153603,5.19961 -4.9161403,26.18279 -0.96831,33.81712 4.01209,7.75846 8.07681,8.39112 12.58259,1.95814 z"
       id="path850"
       inkscape:connector-curvature="0"
       sodipodi:nodetypes="ccccscssccsccccccsccccccccccccccccsccsccsccccsscccccccccccccsccsccccscscsscsccscsccccccccc" />
    <path
       inkscape:connector-curvature="0"
       id="path1495"
       d="m -268.95187,-366.64946 c -3.09163,-1.34413 -12.17172,-8.58336 -20.17807,-16.08717 -11.85539,-11.11119 -16.67975,-14.38447 -25.99477,-17.63757 -14.85916,-5.18913 -58.84419,-26.75924 -83.91943,-41.15368 -10.85097,-6.22901 -24.05173,-13.05759 -29.33499,-15.17456 -23.96322,-9.60204 -71.50598,-24.434 -84.33365,-26.30971 -10.64198,-1.55601 -15.12612,-3.06265 -18.16744,-6.10398 -4.72289,-4.7229 -4.96344,-7.3339 -1.45027,-15.74219 2.00225,-4.79207 4.51932,-7.00959 11.1236,-9.7998 5.26604,-2.22485 9.70475,-5.58514 11.58739,-8.77222 3.7081,-6.27739 15.59597,-12.06525 20.8154,-10.13449 2.00767,0.74269 5.88001,5.19098 8.60534,9.88523 8.59432,14.80305 19.71223,24.64035 37.84726,33.48782 9.1257,4.45206 43.29647,22.47928 75.93512,40.06047 32.63858,17.58126 63.6834,33.68883 68.98844,35.79458 8.29206,3.29144 13.4736,3.87815 36.92661,4.18101 21.35736,0.27593 28.48444,0.97466 32.82335,3.21844 14.97607,7.74435 9.07105,25.40304 -8.4947,25.40304 -2.92944,0 -5.32631,0.64427 -5.32631,1.43218 0,0.78771 -2.81206,4.71741 -6.249,8.73273 -6.8637,8.0187 -11.33001,9.01289 -21.20388,4.71987 z m 11.8977,-9.73274 c 1.88495,-1.00878 2.9645,-2.58282 2.39898,-3.4978 -0.64559,-1.04489 -2.24523,-1.01228 -4.30042,0.0878 -5.68,3.03981 -7.69479,2.05863 -23.30086,-11.34783 -14.15985,-12.16413 -20.37155,-15.62575 -20.37155,-11.35259 0,0.96066 0.7248,1.74659 1.61067,1.74659 0.88586,0 8.49094,5.89459 16.90009,13.09904 15.44996,13.23667 19.91,15.09317 27.06309,11.26492 z m 20.36898,-21.30752 c -0.86046,-2.62051 -10.05342,-4.03546 -10.05342,-1.54737 0,1.49376 2.25355,2.33871 9.31489,3.49272 0.80045,0.13069 1.13282,-0.74461 0.73853,-1.94535 z m -227.58543,-84.97455 c -0.91253,-0.86739 -7.94674,-3.32043 -15.63155,-5.4512 -20.72801,-5.74725 -22.55605,-6.58671 -20.29022,-9.31687 2.51086,-3.02542 0.33995,-5.15329 -2.69082,-2.6378 -3.41125,2.83108 -2.87273,6.35119 1.31449,8.59213 10.30274,5.51391 41.60968,12.9119 37.2981,8.81374 z m -39.9066,109.01498 c -2.21263,-2.38748 -4.74527,-6.85933 -5.62811,-9.93749 -1.3884,-4.84106 -2.77457,-5.89493 -10.26881,-7.80674 -9.24598,-2.35864 -13.09759,-5.92067 -13.09759,-12.11283 0,-10.66753 12.98564,-15.58007 34.05756,-12.88418 31.43976,4.02232 45.01963,1.48703 76.40987,-14.26526 l 17.23576,-8.6493 12.11119,6.5415 c 6.66118,3.59786 11.52705,7.10583 10.81314,7.79558 -2.37732,2.29659 -34.27659,15.75322 -49.32804,20.80887 -11.40599,3.83115 -17.95111,7.43892 -28.24918,15.57136 -14.07864,11.11804 -29.25432,19.23351 -36.01966,19.26229 -2.20722,0.006 -5.82351,-1.93631 -8.03613,-4.3238 z m 21.2186,-7.86581 c 3.12193,-1.90343 5.67623,-4.25837 5.67623,-5.23308 0,-2.45087 -0.67754,-2.28511 -7.77432,1.9021 -8.43688,4.9779 -11.06261,3.48532 -12.46488,-7.0853 -0.64295,-4.84812 -1.85399,-8.81479 -2.69087,-8.81479 -2.3863,0 -1.78203,9.96788 1.00918,16.64826 2.98667,7.14814 7.56355,7.87585 16.24466,2.58281 z m -24.74537,-24.4707 c 1.36227,0 2.47693,-0.83814 2.47693,-1.86257 0,-2.73187 -9.19508,-1.18741 -10.14623,1.70421 -0.56835,1.72731 0.0852,2.11804 2.1913,1.30992 1.65054,-0.63304 4.11566,-1.15156 5.478,-1.15156 z m 150.50143,-44.32089 c -5.5207,-3.00061 -10.03989,-5.90998 -10.04259,-6.46527 -0.005,-0.90415 37.33515,-18.77374 68.56175,-32.81153 12.69664,-5.70771 28.52135,-19.25536 34.78124,-29.77648 8.26829,-13.89685 14.44178,-14.23436 26.72453,-1.46109 4.8495,5.04318 11.71426,10.64627 15.25496,12.45134 11.67677,5.95269 15.11522,21.83561 6.09487,28.15367 -2.33111,1.63278 -7.74469,2.62196 -14.34955,2.62196 -15.9403,0 -79.31681,17.53314 -101.51832,28.08507 -5.90093,2.80461 -11.79552,4.99994 -13.09911,4.87855 -1.30359,-0.12146 -6.88707,-2.6757 -12.40778,-5.67622 z m 97.24589,-29.25691 c 16.4528,-4.33885 19.36065,-6.42083 17.77757,-12.72826 -1.50577,-5.99935 -4.43112,-5.78891 -4.01505,0.28847 0.31883,4.66249 -0.16635,4.9307 -16.60575,9.16933 -9.31403,2.40149 -17.50092,4.95586 -18.19319,5.6763 -2.29982,2.3935 6.76984,1.35614 21.03642,-2.40617 z"
       style="fill:#ffffff;fill-opacity:1;stroke-width:1.74654317"
       sodipodi:nodetypes="cccsccscsscccccccssccccccssccccscccsccscsccsscccccccscsscsccssccsccscsccsccccccsccc" />
  </g>
</svg>
