<?xml version="1.0" encoding="UTF-8"?>
<!-- Generator: Adobe Illustrator 18.0.0, SVG Export Plug-In . SVG Version: 6.00 Build 0)  -->
<!DOCTYPE svg PUBLIC "-//W3C//DTD SVG 1.1//EN" "http://www.w3.org/Graphics/SVG/1.1/DTD/svg11.dtd">
<svg version="1.1" id="svg2" sodipodi:docbase="/home/peter/wikiplaatjes" inkscape:version="0.44" sodipodi:docname="VOC.svg" sodipodi:version="0.32" xmlns:rdf="http://www.w3.org/1999/02/22-rdf-syntax-ns#" xmlns:svg="http://www.w3.org/2000/svg" xmlns:cc="http://web.resource.org/cc/" xmlns:sodipodi="http://sodipodi.sourceforge.net/DTD/sodipodi-0.dtd" xmlns:dc="http://purl.org/dc/elements/1.1/" xmlns:inkscape="http://www.inkscape.org/namespaces/inkscape" xmlns="http://www.w3.org/2000/svg" xmlns:xlink="http://www.w3.org/1999/xlink" x="0px" y="0px" viewBox="0 0 149.2 152.5" enable-background="new 0 0 149.2 152.5" xml:space="preserve">
<sodipodi:namedview inkscape:window-y="0" inkscape:window-x="0" inkscape:pageshadow="2" inkscape:pageopacity="0.0" inkscape:window-height="720" inkscape:current-layer="svg2" inkscape:window-width="1022" id="base" inkscape:cx="87.096537" bordercolor="#666666" inkscape:zoom="3.391216" pagecolor="#ffffff" inkscape:cy="68.381178" guidetolerance="10.0" gridtolerance="10.0" borderopacity="1.0" objecttolerance="10.0">
	</sodipodi:namedview>
<linearGradient id="path7569_1_" gradientUnits="userSpaceOnUse" x1="74.5775" y1="152.4869" x2="74.5775" y2="-3.304194e-009">
	<stop offset="0" style="stop-color:#D1A840"/>
	<stop offset="0.4194" style="stop-color:#EFC14B"/>
	<stop offset="0.7043" style="stop-color:#FAE89D"/>
	<stop offset="1" style="stop-color:#EFC14B"/>
</linearGradient>
<path id="path7569" sodipodi:nodetypes="cssssssssssssssssssssssssscccsscccsssssssssssscccssssssssssssssssscccssssssssssssssssssssssssssssssssssssssccsssssssccssssssssccssssssc" fill="url(#path7569_1_)" stroke="#865A10" stroke-miterlimit="10" d="  M73.2,152.3c-0.3-0.3-0.3-1.1,0-1.8c0.3-0.7,0-1.6-0.6-2c-0.6-0.4-1.1-1.8-1.1-3.1c0-1.4-0.7-4.1-1.5-6.1c-1.4-3.3-1.4-3.7,0-4.5  c2.1-1.2,1.9-3.1-0.3-2.5c-2.1,0.6-3.6-1.4-4.6-6c-0.4-1.8-1.1-3.5-1.6-3.8c-0.5-0.3-0.9-1.4-0.9-2.4c0-1-1.1-3.8-2.4-6.2  c-2.4-4.3-9.6-22.1-9.6-23.6c0-0.4-3-0.8-6.8-0.9c-8.6-0.1-14.6-2.8-21.4-9.5c-6.5-6.4-9-12.3-9.5-22.2c-0.4-7.3-0.2-8.2,2.8-13.8  c3.2-6.1,8.3-11.3,9.9-10.3c1.7,1,0.9-1-2.6-6.6c-1.9-3-3.7-6.2-4-7.1c-0.4-1.2-2.5-1.8-8.3-2.2c-4.2-0.3-8.5-0.9-9.4-1.2  c-2.1-0.8-1.6-4.8,1-7.7c1.8-2,3.9-2.1,14.3-0.3C19.9,9,33.1,9.1,42.1,8.7c3.5-0.2,4,0.1,4.3,2.1c0.3,1.8-0.3,2.4-2.8,2.9  c-4,0.8-4.5,2.3-3,7.9l1.3,4.5h5.3c6.1,0,9.4,1.1,14.7,4.7c8.6,5.9,13.9,17.3,14,29.9c0,8.5-1.5,12.5-6.7,17.6l-3.5,3.4l5,13  c2.7,7.1,5.7,14.6,6.7,16.5c0.9,1.9,1.7,5.2,1.8,7.2c0.1,2.1,0.6,4.3,1.3,4.9c1.3,1.3,2.4-0.8,6.8-13.1c3.1-8.7,4.3-11.5,7.8-19.1  c1.4-3.1,2.6-5.9,2.6-6.3c0-0.4-1.5-2.1-3.4-3.9c-1.9-1.8-4.6-5.3-6.2-7.7c-2.4-3.9-2.8-5.8-3.2-13.5c-0.6-12.9,1.5-19.3,8.5-26.3  c2.9-2.9,6-5.3,6.8-5.3c0.9,0,2.7-0.9,4.2-2.1c2.3-1.8,3.5-2,9.2-1.4l6.5,0.7l1.1-4.8c0.8-3.5,0.8-5.2,0-6.2  c-1.2-1.5-5.3-3.4-7.7-3.6c-0.8-0.1-1.5-0.9-1.5-2c0-1.7,0.9-1.9,8.5-2.2C131,6,133,5.7,138.4,3.5c2.3-0.9,4.9-1.5,5.7-1.2  c0.8,0.3,1.7-0.1,2-0.9c0.3-0.8,1.3-1.4,2.2-1.4c1.4,0,1.3,0.4-0.5,3.3c-1.2,1.8-2.6,3.1-3.2,3c-0.6-0.2-1.8,0.3-2.6,0.9  c-1.2,1-1.7,0.9-2.4-0.2c-0.8-1.2-0.9-1.2-0.9,0.2c0,0.9,0.5,1.9,1.2,2.1c1.9,0.7-1.2,3.5-4.3,3.9c-3.1,0.4-8,3.6-8,5.1  c0,0.6-0.7,2.4-1.5,4c-2.2,4.1-1.1,5,5.7,4.4l5.9-0.5l-0.5,9.2c-0.3,5-0.5,9.3-0.6,9.4c0,0.2-1-0.2-2.1-0.8  c-1.1-0.6-2.3-2.3-2.6-3.8c-1.4-5.8-5.1-11.1-7.9-11.2c-0.5,0-2.1,3.5-3.4,7.7c-2,6.3-6.3,17.9-12.6,33.7c-0.4,1.1-0.8,2.2-0.9,2.5  c0,0.3-0.9,2.4-2,4.8c-1.2,2.6-2.2,3.8-2.6,3.1c-0.4-0.6-1.3-1-2.1-0.7c-0.8,0.3-0.1,1.1,2.1,2.2c4,2.1,11.2,2.3,16.7,0.5  c4.3-1.4,10.4-5.6,10.4-7.3c0-2.3,4.1-5.4,6.5-4.9c2.9,0.6,3.2,1.7,0.7,3.1c-1.5,0.8-1.5,1.1-0.3,1.6c0.9,0.3,1.5,1.9,1.5,3.8  c0,2.4-0.5,3.3-2,3.6c-1.1,0.2-2.4,0.7-3,1.1c-4.6,3.5-11.5,6.3-15.8,6.3c-2.6,0-5.1-0.3-5.4-0.6c-0.4-0.4-1.9-0.7-3.4-0.7  c-1.6,0-3.2-0.7-3.8-1.8c-1.4-2.4-2.2-1.2-6.1,8.8c-4.2,10.8-5.9,15-7.1,17.2c-0.5,1-0.9,2.2-0.9,2.8s-0.7,1.8-1.5,2.6  s-1.5,2.4-1.5,3.4c0,1.1-0.7,1.9-1.6,1.9c-1.1,0-1.4,0.6-0.9,2.1c0.6,1.8,0.4,2-1.4,1.4c-1.2-0.4-2.1-0.2-2.1,0.4  c0,0.6,0.7,1.1,1.5,1.1c1.7,0,1.9,1.1,0.7,2.6c-0.9,1-4,10.7-4.4,14.1c-0.2,1.2-0.8,2.8-1.5,3.6c-0.7,0.8-1,1.7-0.7,2  c0.3,0.3-0.4,0.8-1.5,1C74.6,152.5,73.5,152.6,73.2,152.3z M43.1,70.4c-3-7.1-6.2-14.3-6.9-15.9c-4.6-10.1-6.6-15.5-6-16.9  c0.9-2.2-1.9-2.1-4,0.3c-3.2,3.5-3.7,8-2.1,17.8c0.8,5.1,2.4,10.7,3.5,12.5c1.1,1.8,2.4,4.2,2.9,5.3c2.3,5,17.1,14.2,17.9,11  C48.6,83.9,46.2,77.5,43.1,70.4z M101.6,72.9c1.1-3,2.9-7.9,4.1-10.9c1.2-3,3.4-8.9,4.9-13s4-10,5.4-13c1.4-3,2.6-6.3,2.6-7.4  c0-1.7-0.5-1.8-4.7-1.2c-9.1,1.2-17.5,8.6-21.2,18.5C90.4,52,90.5,63.7,92.9,70c2.6,6.9,4.8,10.4,5.9,9.2  C99.2,78.8,100.5,75.9,101.6,72.9z M67.9,71.9c3.2-10.6,2.5-16.5-3.5-28C60,35.2,54.1,30.1,47.5,29.3c-2.2-0.3-3.9-0.3-3.9,0.1  c0,0.3,1.1,3,2.4,5.9c1.3,2.9,5.7,13.4,9.7,23.3s7.7,18.6,8.2,19.3C65.3,79.5,65.9,78.5,67.9,71.9z"/>
</svg>